<svg width="24" height="16" viewBox="0 0 24 16" fill="none" xmlns="http://www.w3.org/2000/svg">
<path fill-rule="evenodd" clip-rule="evenodd" d="M17.5 0.666748C17.5 0.390606 17.2761 0.166748 17 0.166748C16.7239 0.166748 16.5 0.390606 16.5 0.666748V2.8334H15.3333C14.5819 2.8334 13.8612 3.13192 13.3299 3.66327C12.7985 4.19462 12.5 4.91529 12.5 5.66674C12.5 6.41818 12.7985 7.13885 13.3299 7.67021C13.8612 8.20156 14.5819 8.50007 15.3333 8.50007H16.5V12.1667H13C12.7239 12.1667 12.5 12.3906 12.5 12.6667C12.5 12.9429 12.7239 13.1667 13 13.1667H16.5V15.3334C16.5 15.6096 16.7239 15.8334 17 15.8334C17.2761 15.8334 17.5 15.6096 17.5 15.3334V13.1667H18.6667C19.4181 13.1667 20.1388 12.8682 20.6701 12.3369C21.2015 11.8055 21.5 11.0849 21.5 10.3334C21.5 9.58196 21.2015 8.86129 20.6701 8.32994C20.1388 7.79858 19.4181 7.50007 18.6667 7.50007H17.5V3.8334H20.3333C20.6095 3.8334 20.8333 3.60955 20.8333 3.3334C20.8333 3.05726 20.6095 2.8334 20.3333 2.8334H17.5V0.666748ZM16.5 3.8334H15.3333C14.8471 3.8334 14.3808 4.02656 14.037 4.37038C13.6932 4.71419 13.5 5.18051 13.5 5.66674C13.5 6.15297 13.6932 6.61928 14.037 6.9631C14.3808 7.30692 14.8471 7.50007 15.3333 7.50007H16.5V3.8334ZM17.5 8.50007V12.1667H18.6667C19.1529 12.1667 19.6192 11.9736 19.963 11.6298C20.3068 11.286 20.5 10.8196 20.5 10.3334C20.5 9.84717 20.3068 9.38086 19.963 9.03704C19.6192 8.69323 19.1529 8.50007 18.6667 8.50007H17.5Z" fill="#FF6A92"/>
<path d="M8 8H2" stroke="#FF6A92" stroke-linecap="round" stroke-linejoin="round"/>
</svg>
